<svg xmlns="http://www.w3.org/2000/svg" xmlns:xlink="http://www.w3.org/1999/xlink" viewBox="0 0 415.01 328.45"><defs><style>.cls-1{fill:none;}.cls-2{clip-path:url(#clip-path);}.cls-3{fill:#1a1a1a;}.cls-4{clip-path:url(#clip-path-2);}.cls-5{fill:#eee8e8;}.cls-6{clip-path:url(#clip-path-3);}</style><clipPath id="clip-path"><polygon class="cls-1" points="294.66 300.74 331.32 300.74 331.32 316.91 279.37 316.91 271.95 255.73 262.73 274.53 153.97 231.27 153.97 302.49 190.69 302.49 190.69 320.82 130.86 320.82 130.86 223.86 83.69 202.02 197.7 7.63 329.16 64.43 331.32 110.72 290.28 95.43 290.28 133.43 249.65 131.21 220.41 131.68 225.19 168.81 242.24 201.56 275.86 168.81 288.53 189.76 310.36 172.72 322.62 186.73 288.06 237.4 294.66 300.74"/></clipPath><clipPath id="clip-path-2"><polygon class="cls-1" points="238.71 89.82 265.66 51.23 301.07 56.52 301.07 76.07 238.71 89.82"/></clipPath><clipPath id="clip-path-3"><polygon class="cls-1" points="169.29 76.24 155.16 112.35 191.66 118.23 226.19 86.45 169.29 76.24"/></clipPath></defs><g id="Graphic"><g class="cls-2"><polygon class="cls-3" points="294.66 300.74 331.32 300.74 331.32 316.91 279.37 316.91 271.95 255.73 262.73 274.53 153.97 231.27 153.97 302.49 190.69 302.49 190.69 320.82 130.86 320.82 130.86 223.86 83.69 202.02 197.7 7.63 329.16 64.43 331.32 110.72 290.28 95.43 290.28 133.43 249.65 131.21 220.41 131.68 225.19 168.81 242.24 201.56 275.86 168.81 288.53 189.76 310.36 172.72 322.62 186.73 288.06 237.4 294.66 300.74"/><g class="cls-4"><polygon class="cls-5" points="238.71 89.82 265.66 51.23 301.07 56.52 301.07 76.07 238.71 89.82"/><polygon class="cls-3" points="275.07 51.23 274.22 61.41 283.71 67.34 291.01 65.82 294.4 54.79 275.07 51.23"/></g><g class="cls-6"><polygon class="cls-5" points="169.29 76.24 155.16 112.35 191.66 118.23 226.19 86.45 169.29 76.24"/><polygon class="cls-3" points="175.26 76.24 173.23 98.29 191.71 102.19 206.13 80.82 175.26 76.24"/></g></g></g></svg>