<svg xmlns="http://www.w3.org/2000/svg" viewBox="0 0 419.22 318.73"><defs><style>.cls-1{fill:#1a1a1a;}</style></defs><g id="Graphic"><polygon class="cls-1" points="224.62 136.5 240.89 131.08 240.89 147.35 213.78 163.61 200.9 104.65 238.18 39.59 285.62 85 278.17 193.43 253.09 237.49 264.61 264.6 295.79 255.11 284.94 230.71 303.24 193.43 303.24 88.38 236.82 18.58 187.35 97.87 209.71 180.56 239.53 183.27 265.29 173.1 255.12 103.29 219.88 116.17 224.62 136.5"/><polygon class="cls-1" points="245.29 272.96 286.4 272.96 295.21 292.56 248.99 300.15 245.29 272.96"/><path class="cls-1" d="M136.83,196.45c.6-1.2,19.57-28.27,19.57-28.27L203,211.06,165.7,234.71l30.65,54.55,23.81-12-19.51-34.06,47-27.21-115-85.83L116,174.28Z"/><polygon class="cls-1" points="138.94 216.01 147.03 210.28 147.03 218.37 162.54 220.73 158.49 201.52 129.84 211.13 133.55 236.57 158.16 236.57 156.81 227.81 141.64 226.8 138.94 216.01"/></g></svg>