<svg xmlns="http://www.w3.org/2000/svg" viewBox="0 0 419.22 317.72"><defs><style>.cls-1{fill:#1a1a1a;}</style></defs><g id="Graphic"><polygon class="cls-1" points="155.63 148.78 130.46 158.08 125.54 79.84 220.19 27.31 251.93 179.97 188.73 212.83 179.16 244.53 152.35 231.95 168.76 177.78 214.18 153.16 204.87 79.84 152.35 106.1 155.63 148.78"/><polygon class="cls-1" points="141.95 259.31 133.2 287.76 160.55 302.53 169.86 302.53 188.73 264.23 141.95 259.31"/><path class="cls-1" d="M261.53,118.83c1.09-.55,29.71-9.82,29.71-9.82l10.36,56.71-40.07-3.27-7.64,56.43,23.86,4.37,4.5-35.45,49.07,6L294.79,68.39l-36.26,22.9Z"/><polygon class="cls-1" points="208.63 237.96 218.75 230.79 218.75 240.92 238.16 243.87 233.1 219.82 197.24 231.84 201.88 263.7 232.68 263.7 230.99 252.73 212 251.46 208.63 237.96"/></g></svg>