<svg xmlns="http://www.w3.org/2000/svg" viewBox="0 0 381.43 317.72"><defs><style>.cls-1{fill:#1a1a1a;}</style></defs><g id="Graphic"><polygon class="cls-1" points="157.61 142.72 132.44 152.02 127.52 73.78 222.18 21.25 253.91 173.91 190.72 206.76 181.14 238.47 154.33 225.89 170.74 171.72 216.16 147.09 206.86 73.78 154.33 100.04 157.61 142.72"/><polygon class="cls-1" points="143.93 253.24 135.18 281.7 162.54 296.47 171.84 296.47 190.72 258.17 143.93 253.24"/><polygon class="cls-1" points="100.25 194.03 91.14 201.1 79 169.68 110.98 135.92 143.73 194.35 122.09 215.99 122.27 230.21 109.66 228.53 109.38 204.21 124.79 188.25 111.5 159.42 93.38 176.97 100.25 194.03"/><polygon class="cls-1" points="108.94 241.08 109.03 253.86 122.15 256.38 125.96 255.18 128.74 237.04 108.94 241.08"/></g></svg>