<svg xmlns="http://www.w3.org/2000/svg" viewBox="0 0 381.43 310.77"><defs><style>.cls-1{fill:#1a1a1a;}</style></defs><g id="Graphic"><polygon class="cls-1" points="238.26 186.65 224.99 188.66 230.5 149.85 282.17 133.71 282.26 211.67 247.99 221.36 240.09 235.92 228.24 227.04 241.75 202.18 266.48 194.72 269.35 157.88 240.97 165.42 238.26 186.65"/><polygon class="cls-1" points="220.38 239.39 213.21 252.43 225.11 262.44 229.67 263.38 242.79 246.53 220.38 239.39"/><polygon class="cls-1" points="136.45 132.53 152.72 127.1 152.72 143.37 125.61 159.64 112.73 100.67 150 35.61 197.45 81.02 189.99 189.46 164.91 233.51 176.44 260.62 207.61 251.13 196.77 226.73 215.07 189.46 215.07 84.41 148.65 14.6 99.17 93.89 121.54 176.58 151.36 179.29 177.11 169.12 166.95 99.32 131.71 112.19 136.45 132.53"/><polygon class="cls-1" points="157.12 268.98 198.22 268.98 207.04 288.58 160.82 296.17 157.12 268.98"/></g></svg>