<svg xmlns="http://www.w3.org/2000/svg" viewBox="0 0 160 160"><defs><style>.cls-1{fill:#22b6eb;}.cls-2{fill:#eee8e8;}.cls-3{fill:#e52529;}</style></defs><g id="Graphic"><polygon class="cls-1" points="135.39 36.85 139.52 53.33 129.22 59.51 127.87 71.72 105.77 72.94 122.81 61.55 118.62 60.17 124.12 49.79 135.39 36.85"/><polygon class="cls-1" points="122.76 87.5 126.45 95.11 134.87 98.85 137.54 97.77 134.5 90.31 128.32 93.06 122.76 87.5"/><path class="cls-2" d="M103.67,82.26H96L79.36,90.84l-.48-9.54H74.59l1.91-5.72,4.29-11,13.82,9.06L97,55.56l15.73,8.1,2.86-31L51.7,36,11.18,108l58.64,31.94,13.35-31.46,28.6-5.72,3.82-22.89-8.11,9.06ZM52.9,55.32l5.72-11.44,21,5.72L72,62.47Z"/><polygon class="cls-3" points="131.32 32.68 137.52 49.36 127.51 56.99 127.51 69.86 104.62 73.68 121.07 59.85 116.54 58.9 121.07 47.45 131.32 32.68"/><polygon class="cls-3" points="115.59 78.67 123.69 78.67 123.69 74.61 119.64 74.61 144.67 63.44 144.67 83.91 134.18 80.1 130.13 83.91 115.59 78.67"/><polygon class="cls-3" points="121.07 86.31 128.7 95.61 141.57 97.99 144.91 95.61 138.23 86.31 130.61 92.15 121.07 86.31"/><polygon class="cls-3" points="68.74 113.21 59.2 134.16 69.82 139.94 83.17 108.48 68.74 113.21"/></g></svg>