<svg xmlns="http://www.w3.org/2000/svg" viewBox="0 0 447.04 160"><defs><style>.cls-1{fill:#22b6eb;}.cls-2,.cls-4{fill:#eee8e8;}.cls-3{fill:#e52529;}.cls-4{font-size:39px;font-family:SpaceGrotesk-Regular, Space Grotesk;letter-spacing:0em;}.cls-5{letter-spacing:-0.01em;}</style></defs><g id="Graphic"><polygon class="cls-1" points="135.39 36.85 139.52 53.33 129.22 59.51 127.87 71.72 105.77 72.94 122.81 61.55 118.62 60.17 124.12 49.79 135.39 36.85"/><polygon class="cls-1" points="122.76 87.5 126.45 95.11 134.87 98.85 137.54 97.77 134.5 90.31 128.32 93.06 122.76 87.5"/><path class="cls-2" d="M103.67,82.26H96L79.36,90.84l-.48-9.54H74.59l1.91-5.72,4.29-11,13.82,9.06L97,55.56l15.73,8.1,2.86-31L51.7,36,11.18,108l58.64,31.94,13.35-31.46,28.6-5.72,3.82-22.89-8.11,9.06ZM52.9,55.32l5.72-11.44,21,5.72L72,62.47Z"/><polygon class="cls-3" points="131.32 32.68 137.52 49.36 127.51 56.99 127.51 69.86 104.62 73.68 121.07 59.85 116.54 58.9 121.07 47.45 131.32 32.68"/><polygon class="cls-3" points="115.59 78.67 123.69 78.67 123.69 74.61 119.64 74.61 144.67 63.44 144.67 83.91 134.18 80.1 130.13 83.91 115.59 78.67"/><polygon class="cls-3" points="121.07 86.31 128.7 95.61 141.57 97.99 144.91 95.61 138.23 86.31 130.61 92.15 121.07 86.31"/><polygon class="cls-3" points="68.74 113.21 59.2 134.16 69.82 139.94 83.17 108.48 68.74 113.21"/><text class="cls-4" transform="translate(155.61 77.64)">sc<tspan class="cls-5" x="44.19" y="0">r</tspan><tspan x="58.34" y="0">eech</tspan></text><path class="cls-2" d="M166.2,105.05a6.52,6.52,0,0,1-6.27-3.4h-.39v2.94h-1.92V81.49h2v9.87h.4a6.38,6.38,0,0,1,1.2-1.57,6,6,0,0,1,2-1.22,8.24,8.24,0,0,1,3-.48,7.74,7.74,0,0,1,3.93,1A7.23,7.23,0,0,1,172.9,92a9,9,0,0,1,1,4.4v.4a9,9,0,0,1-1,4.41,7.48,7.48,0,0,1-2.79,2.87A7.7,7.7,0,0,1,166.2,105.05Zm-.46-1.78a5.89,5.89,0,0,0,4.44-1.75,6.62,6.62,0,0,0,1.7-4.82v-.26a6.64,6.64,0,0,0-1.7-4.82,6.48,6.48,0,0,0-8.86,0,6.61,6.61,0,0,0-1.72,4.82v.26a6.59,6.59,0,0,0,1.72,4.82A5.91,5.91,0,0,0,165.74,103.27Z"/><path class="cls-2" d="M183.46,105.05a7.86,7.86,0,0,1-3.05-.57,5,5,0,0,1-2.16-1.7,4.56,4.56,0,0,1-.79-2.71,4.3,4.3,0,0,1,.79-2.67,4.81,4.81,0,0,1,2.14-1.59,8.31,8.31,0,0,1,3-.52h5.87V94a4,4,0,0,0-1.12-3,4.54,4.54,0,0,0-3.27-1.09,5.07,5.07,0,0,0-3.35,1,5.15,5.15,0,0,0-1.66,2.79L178,93.14a7.56,7.56,0,0,1,1.26-2.56,6,6,0,0,1,2.27-1.81,7.87,7.87,0,0,1,3.4-.68,6.56,6.56,0,0,1,4.7,1.58,5.84,5.84,0,0,1,1.67,4.43v7.78c0,.66.31,1,.92,1h1.56v1.72h-2.12A2.12,2.12,0,0,1,190,104a2.28,2.28,0,0,1-.6-1.67v-.23h-.33a7.06,7.06,0,0,1-1.1,1.42,4.89,4.89,0,0,1-1.77,1.12A7.43,7.43,0,0,1,183.46,105.05Zm.13-1.78a5.62,5.62,0,0,0,4.11-1.53,5.79,5.79,0,0,0,1.57-4.34V97h-5.84a5.14,5.14,0,0,0-2.85.74,2.55,2.55,0,0,0-1.14,2.3,2.77,2.77,0,0,0,1.17,2.39A5,5,0,0,0,183.59,103.27Z"/><path class="cls-2" d="M197.09,104.59v-16H199v3h.39a6.14,6.14,0,0,1,1.95-2.29,6.51,6.51,0,0,1,3.93-1,7,7,0,0,1,3.2.73,5.61,5.61,0,0,1,2.32,2.19,7,7,0,0,1,.88,3.68v9.77h-2V95a4.82,4.82,0,0,0-1.32-3.8A5.18,5.18,0,0,0,204.85,90a5.64,5.64,0,0,0-4.13,1.64,6.66,6.66,0,0,0-1.65,4.93v8Z"/><path class="cls-2" d="M216.89,104.59V81.49h2V95.42h.4l8.21-6.87h2.91l-9.51,7.82,9.77,8.22h-2.87l-8.51-7.23h-.4v7.23Z"/></g></svg>