<svg xmlns="http://www.w3.org/2000/svg" viewBox="0 0 447.04 160"><defs><style>.cls-1{fill:#22b6eb;}.cls-2{fill:#1a1a1a;}.cls-3{fill:#e52529;}</style></defs><g id="Graphic"><polygon class="cls-1" points="135.39 36.85 139.52 53.33 129.22 59.51 127.87 71.72 105.77 72.94 122.81 61.55 118.62 60.17 124.12 49.79 135.39 36.85"/><polygon class="cls-1" points="122.76 87.5 126.45 95.11 134.87 98.85 137.54 97.77 134.5 90.31 128.32 93.06 122.76 87.5"/><path class="cls-2" d="M103.67,82.26H96L79.36,90.84l-.48-9.54H74.59l1.91-5.72,4.29-11,13.82,9.06L97,55.56l15.73,8.1,2.86-31L51.7,36,11.18,108l58.64,31.94,13.35-31.46,28.6-5.72,3.82-22.89-8.11,9.06ZM52.9,55.32l5.72-11.44,21,5.72L72,62.47Z"/><polygon class="cls-3" points="131.32 32.68 137.52 49.36 127.51 56.99 127.51 69.86 104.62 73.68 121.07 59.85 116.54 58.9 121.07 47.45 131.32 32.68"/><polygon class="cls-3" points="115.59 78.67 123.69 78.67 123.69 74.61 119.64 74.61 144.67 63.44 144.67 83.91 134.18 80.1 130.13 83.91 115.59 78.67"/><polygon class="cls-3" points="121.07 86.31 128.7 95.61 141.57 97.99 144.91 95.61 138.23 86.31 130.61 92.15 121.07 86.31"/><polygon class="cls-3" points="68.74 113.21 59.2 134.16 69.82 139.94 83.17 108.48 68.74 113.21"/><path class="cls-2" d="M169,86.86a10.3,10.3,0,0,1-5.87-1.64,7.41,7.41,0,0,1-3-5.42l2.3-.43a6.67,6.67,0,0,0,1.27,3.25,5.19,5.19,0,0,0,2.34,1.7,8.41,8.41,0,0,0,2.94.51,6.59,6.59,0,0,0,3.76-1,3,3,0,0,0,1.43-2.63,2.42,2.42,0,0,0-1.35-2.38,13.41,13.41,0,0,0-3.57-1l-1.79-.31a13.67,13.67,0,0,1-3.24-1A5.86,5.86,0,0,1,162,74.81a4.35,4.35,0,0,1-.84-2.73,4.55,4.55,0,0,1,1.93-3.87,10.06,10.06,0,0,1,10.34.06,6.48,6.48,0,0,1,2.47,4.23l-2.18.47a4.49,4.49,0,0,0-1.85-3.2,6.68,6.68,0,0,0-3.65-.93,6.29,6.29,0,0,0-3.43.82,2.67,2.67,0,0,0-1.29,2.42,2.48,2.48,0,0,0,1.17,2.28,9.27,9.27,0,0,0,3.2,1.07l1.79.31a17.59,17.59,0,0,1,3.51.92,6,6,0,0,1,2.48,1.69,4.35,4.35,0,0,1,.92,2.89,4.82,4.82,0,0,1-2,4.15A9.2,9.2,0,0,1,169,86.86Z"/><path class="cls-2" d="M190.91,86.86A10.07,10.07,0,0,1,186,85.67a8.65,8.65,0,0,1-3.42-3.42A10.5,10.5,0,0,1,181.32,77v-.39a10.51,10.51,0,0,1,1.24-5.25A8.64,8.64,0,0,1,186,68a10.07,10.07,0,0,1,4.93-1.19,9.5,9.5,0,0,1,4.62,1,8.15,8.15,0,0,1,3,2.69A8.82,8.82,0,0,1,199.84,74l-2.3.47a7,7,0,0,0-1-2.79,5.6,5.6,0,0,0-2.18-2,8,8,0,0,0-7.18.19,7,7,0,0,0-2.59,2.69,8.39,8.39,0,0,0-1,4.12V77a8.32,8.32,0,0,0,1,4.11,6.85,6.85,0,0,0,2.59,2.69,7.22,7.22,0,0,0,3.71,1,6.49,6.49,0,0,0,4.76-1.62,7.07,7.07,0,0,0,2-4l2.3.47a9.51,9.51,0,0,1-1.47,3.49,8.32,8.32,0,0,1-3,2.69A9.5,9.5,0,0,1,190.91,86.86Z"/><path class="cls-2" d="M205.92,86.31v-19h2.27v2.37h.46a3.76,3.76,0,0,1,1.62-1.87,6.32,6.32,0,0,1,3-.58h2.22v2.18H213a4.83,4.83,0,0,0-3.43,1.21,5,5,0,0,0-1.28,3.78V86.31Z"/><path class="cls-2" d="M228.51,86.86a10.12,10.12,0,0,1-5.09-1.23A8.63,8.63,0,0,1,220,82.18a10.63,10.63,0,0,1-1.21-5.11V76.6A10.57,10.57,0,0,1,220,71.47,8.75,8.75,0,0,1,223.38,68a9.48,9.48,0,0,1,4.85-1.23,9.69,9.69,0,0,1,4.7,1.11,8,8,0,0,1,3.22,3.2,10,10,0,0,1,1.17,5v1.25H221.17a7.52,7.52,0,0,0,2.17,5.48,7.22,7.22,0,0,0,5.17,1.93,6.27,6.27,0,0,0,4.11-1.21,7.89,7.89,0,0,0,2.24-3l2.11.93A11,11,0,0,1,235.35,84a8.14,8.14,0,0,1-2.67,2A9.57,9.57,0,0,1,228.51,86.86Zm-7.3-11.55h13.73a6.55,6.55,0,0,0-2-4.74,6.77,6.77,0,0,0-4.72-1.65,6.88,6.88,0,0,0-4.72,1.65A7.53,7.53,0,0,0,221.21,75.31Z"/><path class="cls-2" d="M252,86.86a10.15,10.15,0,0,1-5.09-1.23,8.67,8.67,0,0,1-3.37-3.45,10.52,10.52,0,0,1-1.21-5.11V76.6a10.46,10.46,0,0,1,1.21-5.13A8.79,8.79,0,0,1,246.85,68a9.54,9.54,0,0,1,4.86-1.23,9.71,9.71,0,0,1,4.7,1.11,8.06,8.06,0,0,1,3.22,3.2,10,10,0,0,1,1.17,5v1.25H244.65a7.52,7.52,0,0,0,2.17,5.48A7.2,7.2,0,0,0,252,84.75a6.29,6.29,0,0,0,4.12-1.21,8,8,0,0,0,2.24-3l2.11.93A11,11,0,0,1,258.83,84a8.14,8.14,0,0,1-2.67,2A9.61,9.61,0,0,1,252,86.86Zm-7.29-11.55h13.73a6.59,6.59,0,0,0-2-4.74,6.79,6.79,0,0,0-4.72-1.65A6.88,6.88,0,0,0,247,70.57,7.48,7.48,0,0,0,244.69,75.31Z"/><path class="cls-2" d="M275.38,86.86a10.1,10.1,0,0,1-4.93-1.19A8.63,8.63,0,0,1,267,82.25,10.4,10.4,0,0,1,265.79,77v-.39A10.41,10.41,0,0,1,267,71.39,8.62,8.62,0,0,1,270.45,68a10.1,10.1,0,0,1,4.93-1.19,9.5,9.5,0,0,1,4.62,1,8.07,8.07,0,0,1,3,2.69A8.82,8.82,0,0,1,284.31,74l-2.3.47a7,7,0,0,0-1-2.79,5.63,5.63,0,0,0-2.19-2,8,8,0,0,0-7.17.19,7,7,0,0,0-2.6,2.69,8.5,8.5,0,0,0-.95,4.12V77a8.43,8.43,0,0,0,.95,4.11,6.87,6.87,0,0,0,2.6,2.69,7.16,7.16,0,0,0,3.7,1,6.49,6.49,0,0,0,4.76-1.62,7.07,7.07,0,0,0,2-4l2.3.47A9.33,9.33,0,0,1,283,83.13a8.27,8.27,0,0,1-3,2.69A9.5,9.5,0,0,1,275.38,86.86Z"/><path class="cls-2" d="M290.4,86.31V59h2.34V70.67h.47a6.82,6.82,0,0,1,1.3-1.77,6.26,6.26,0,0,1,2.19-1.37,9.32,9.32,0,0,1,3.37-.52,8.33,8.33,0,0,1,3.78.85,6.63,6.63,0,0,1,2.75,2.58,8.24,8.24,0,0,1,1,4.33V86.31H305.3V74.92q0-3.12-1.56-4.46a6.16,6.16,0,0,0-4.18-1.35A6.69,6.69,0,0,0,294.69,71c-1.3,1.28-1.95,3.21-1.95,5.81v9.48Z"/><path class="cls-2" d="M324.56,86.86a8.26,8.26,0,0,1-4.85-1.23,8.08,8.08,0,0,1-2.56-2.79h-.47v3.47h-2.26V59h2.34V70.67h.47a7.1,7.1,0,0,1,1.42-1.85A6.94,6.94,0,0,1,321,67.38a9.75,9.75,0,0,1,3.53-.57A9.16,9.16,0,0,1,329.2,68a8.57,8.57,0,0,1,3.28,3.39,10.75,10.75,0,0,1,1.21,5.21v.47a10.47,10.47,0,0,1-1.23,5.2,8.78,8.78,0,0,1-3.3,3.4A9.06,9.06,0,0,1,324.56,86.86ZM324,84.75a7,7,0,0,0,5.24-2.07,7.8,7.8,0,0,0,2-5.69v-.31a7.84,7.84,0,0,0-2-5.7,7.68,7.68,0,0,0-10.47,0,7.8,7.8,0,0,0-2,5.7V77a7.76,7.76,0,0,0,2,5.69A7,7,0,0,0,324,84.75Z"/><path class="cls-2" d="M345.58,86.86a9.06,9.06,0,0,1-3.6-.69,5.77,5.77,0,0,1-2.56-2,5.45,5.45,0,0,1-.94-3.2,5.13,5.13,0,0,1,.94-3.16A5.59,5.59,0,0,1,342,75.94a9.53,9.53,0,0,1,3.54-.63h6.95V73.79a4.8,4.8,0,0,0-1.33-3.59,5.35,5.35,0,0,0-3.86-1.28,5.59,5.59,0,0,0-5.93,4.52l-2.26-.66a8.92,8.92,0,0,1,1.48-3,7.19,7.19,0,0,1,2.69-2.14,9.33,9.33,0,0,1,4-.8,7.76,7.76,0,0,1,5.56,1.87,6.88,6.88,0,0,1,2,5.23v9.2c0,.78.36,1.17,1.09,1.17h1.83v2h-2.49a2.56,2.56,0,0,1-1.92-.72,2.74,2.74,0,0,1-.7-2v-.27h-.39a8.89,8.89,0,0,1-1.3,1.67,5.91,5.91,0,0,1-2.09,1.33A8.88,8.88,0,0,1,345.58,86.86Zm.16-2.11a6.62,6.62,0,0,0,4.85-1.81,6.84,6.84,0,0,0,1.86-5.13v-.47h-6.91a6,6,0,0,0-3.37.88,3,3,0,0,0-1.35,2.71,3.3,3.3,0,0,0,1.39,2.83A5.92,5.92,0,0,0,345.74,84.75Z"/><path class="cls-2" d="M362.31,86.31v-19h2.27v3.51H365a7.13,7.13,0,0,1,2.3-2.71A7.66,7.66,0,0,1,372,67a8.4,8.4,0,0,1,3.79.85,6.67,6.67,0,0,1,2.75,2.6,8.34,8.34,0,0,1,1,4.35V86.31h-2.34V74.92q0-3.12-1.56-4.48a6.11,6.11,0,0,0-4.17-1.37A6.69,6.69,0,0,0,366.6,71q-2,1.94-2,5.83v9.48Z"/><path class="cls-2" d="M386.34,86.31V59h2.34V75.47h.46l9.72-8.11h3.43L391.06,76.6l11.54,9.71h-3.39l-10.07-8.54h-.46v8.54Z"/></g></svg>